<?xml version="1.0" standalone="no"?>
<!DOCTYPE svg PUBLIC "-//W3C//DTD SVG 20010904//EN"
 "http://www.w3.org/TR/2001/REC-SVG-20010904/DTD/svg10.dtd">
<svg version="1.0" xmlns="http://www.w3.org/2000/svg"
 width="600.000000pt" height="600.000000pt" viewBox="0 0 600.000000 600.000000"
 preserveAspectRatio="xMidYMid meet">
<metadata>
Created by potrace 1.11, written by Peter Selinger 2001-2013
</metadata>
<g transform="translate(0.000000,600.000000) scale(0.100000,-0.100000)"
fill="#000000" stroke="none">
<path d="M0 3000 l0 -3000 3000 0 3000 0 0 3000 0 3000 -3000 0 -3000 0 0
-3000z m3329 1770 c556 -102 993 -462 1155 -950 59 -180 66 -248 66 -659 0
-349 -1 -368 -20 -399 -12 -19 -38 -41 -63 -52 -41 -19 -83 -20 -1407 -20
-1324 0 -1366 -1 -1407 -20 -106 -48 -113 -202 -11 -257 30 -17 78 -18 585
-23 l551 -5 34 -24 c18 -14 95 -76 171 -139 85 -71 143 -112 152 -108 8 3 113
65 232 138 l218 133 405 3 c354 3 413 1 468 -14 196 -52 352 -262 352 -474 0
-217 -166 -432 -371 -479 -29 -7 -558 -11 -1509 -11 -1407 0 -1467 1 -1500 19
-104 54 -108 200 -8 261 33 20 54 20 1485 20 1004 0 1460 3 1480 11 149 56
149 302 0 358 -18 7 -151 11 -365 11 l-337 0 -80 -49 c-44 -26 -163 -98 -264
-159 -191 -117 -220 -127 -284 -103 -13 5 -107 77 -208 160 l-184 151 -500 0
c-457 0 -506 2 -567 19 -162 44 -283 163 -322 316 -59 225 53 443 275 537 l54
23 1320 5 1320 5 -1 275 c-1 262 -3 280 -27 375 -34 130 -118 297 -200 401
-398 500 -1247 601 -1794 215 -197 -139 -324 -304 -437 -569 -61 -144 -286
-100 -286 55 0 124 170 412 346 588 200 199 482 355 763 421 207 49 500 55
720 14z m-158 -904 l-139 -139 -141 133 c-78 73 -141 138 -141 144 0 6 62 73
137 148 l138 138 142 -142 143 -143 -139 -139z m-416 -136 l140 -140 -143
-143 -142 -142 -142 142 -143 143 140 140 c77 77 142 140 145 140 3 0 68 -63
145 -140z m840 0 l140 -140 -143 -143 -142 -142 -142 142 -143 143 140 140
c77 77 142 140 145 140 3 0 68 -63 145 -140z"/>
<path d="M2992 4037 l-32 -33 35 -34 35 -34 35 34 35 34 -32 33 c-18 18 -35
33 -38 33 -3 0 -20 -15 -38 -33z"/>
</g>
</svg>
